<svg width="200" height="200" viewBox="0 0 200 200" fill="none" xmlns="http://www.w3.org/2000/svg">
<g clip-path="url(#clip0_9_29)">
<path d="M186.82 64.9773C172.551 48.1002 148.023 48.7089 133.209 55.9108C121.695 61.5109 113.206 46.0691 106.676 58.8902C103.806 64.5287 110.732 73.6785 111.783 75.0112C111.783 75.0176 111.783 75.0433 111.758 75.0817C111.886 75.2034 111.995 75.306 112.072 75.3957C111.597 79.7911 112.059 84.3788 112.86 88.9985C112.956 89.447 112.956 89.9276 112.924 90.3889C110.342 89.2612 107.779 87.2749 105.715 83.9559C105.715 83.9559 106.76 88.8576 112.796 91.35C112.783 91.4269 112.783 91.4846 112.757 91.5487C109.304 90.7221 105.671 88.6782 102.915 84.2314C102.915 84.2314 104.722 89.8315 112.642 91.978C111.623 95.4636 108.355 99.0133 105.709 101.185C103.332 103.152 98.8915 104.287 101.506 107.772C103.466 110.361 108.195 109.361 109.22 113.52C109.739 115.621 104.889 119.677 105.997 121.362C106.427 122.49 108.74 123.592 109.643 123.9C108.528 124.566 106.568 126.411 106.568 127.533C107.401 127.949 110.29 128.135 111.2 136.067C112.738 149.67 128.423 140.962 135.862 139.585C143.525 138.156 144.724 158.301 133.466 168.021C122.202 177.747 95.0535 174.39 101.627 156.763C96.0531 158.768 91.7986 164.477 90.4274 170.821C74.4602 168.437 70.9618 141.372 95.156 136.605C57.2756 125.143 41.3597 162.068 66.829 183.072C77.619 191.978 97.6998 197.713 124.765 191.67C183.065 178.625 221.554 106.081 186.82 64.9773Z" fill="#FAFAFA"/>
<path d="M68.3668 42.7045C67.207 40.9937 66.0216 39.1548 64.8683 37.1621C59.4284 27.7304 56.9168 18.9972 56.9168 18.9972C56.9168 18.9972 63.2088 25.5455 68.6551 34.9836C69.8148 36.9763 70.808 38.9177 71.6986 40.763C72.5764 36.2971 73.5631 27.064 69.1997 19.4905C63.1832 9.07853 49.324 5.8428 49.324 5.8428C49.324 5.8428 45.1848 19.4777 51.2014 29.8833C55.5584 37.4632 64.0546 41.1987 68.3668 42.7045Z" fill="#FAFAFA"/>
<path d="M34.9074 93.4068C24.0213 93.4068 15.1983 91.2091 15.1983 91.2091C15.1983 91.2091 24.0213 89.0242 34.9074 89.0242C37.2205 89.0242 39.4118 89.1331 41.4622 89.2933C38.0086 86.2818 30.5248 80.8163 21.7595 80.8163C9.75844 80.8163 0 91.2091 0 91.2091C0 91.2091 9.75844 101.602 21.7595 101.602C30.5248 101.602 38.0022 96.1299 41.4622 93.1377C39.4118 93.2915 37.2205 93.4068 34.9074 93.4068Z" fill="#FAFAFA"/>
<path d="M128.538 34.9715C133.985 25.5462 140.29 18.9979 140.29 18.9979C140.29 18.9979 137.772 27.7311 132.319 37.1628C131.165 39.1555 129.993 41.0008 128.814 42.7052C133.145 41.2059 141.616 37.464 145.986 29.884C152.002 19.4784 147.882 5.83712 147.882 5.83712C147.882 5.83712 134.017 9.07926 128 19.4784C123.618 27.0712 124.624 36.2786 125.482 40.7638C126.386 38.9184 127.379 36.9706 128.538 34.9715Z" fill="#FAFAFA"/>
<path d="M42.8013 68.3283C48.6897 71.7306 55.8595 70.9489 59.3516 70.2826C57.9035 69.5842 56.3978 68.8153 54.8344 67.9182C47.5043 63.6701 42.4104 58.7685 42.4104 58.7685C42.4104 58.7685 49.2023 60.7292 56.5323 64.9708C58.0957 65.8679 59.5246 66.7969 60.8381 67.694C59.6976 64.3365 56.763 57.7369 50.881 54.3218C42.7757 49.6508 32.1843 52.8609 32.1843 52.8609C32.1843 52.8609 34.696 63.6509 42.8013 68.3283Z" fill="#FAFAFA"/>
<path d="M60.8509 114.743C59.5182 115.647 58.0893 116.569 56.5387 117.467C49.2087 121.708 42.404 123.656 42.404 123.656C42.404 123.656 47.4979 118.748 54.8344 114.513C56.3914 113.616 57.9099 112.84 59.358 112.161C55.8595 111.476 48.6961 110.688 42.7885 114.115C34.696 118.786 32.1651 129.57 32.1651 129.57C32.1651 129.57 42.7885 132.774 50.8682 128.103C56.7758 124.694 59.6848 118.107 60.8509 114.743Z" fill="#FAFAFA"/>
<path d="M96.8924 41.6672C96.8924 33.1966 98.5968 26.3151 98.5968 26.3151C98.5968 26.3151 100.308 33.1902 100.308 41.6672C100.308 43.442 100.224 45.1592 100.103 46.7547C102.441 44.07 106.689 38.2521 106.689 31.4474C106.689 22.0927 98.5968 14.4999 98.5968 14.4999C98.5968 14.4999 90.5171 22.0862 90.5107 31.4282C90.5107 38.2457 94.7716 44.07 97.1103 46.7419C96.9821 45.1592 96.8924 43.4677 96.8924 41.6672Z" fill="#FAFAFA"/>
</g>
<defs>
<clipPath id="clip0_9_29">
<rect width="200" height="200" fill="white"/>
</clipPath>
</defs>
</svg>
